<svg width="172" height="100" viewBox="0 0 172 100" fill="none" xmlns="http://www.w3.org/2000/svg">
<rect width="172" height="100" fill="white"/>
<path d="M98.8599 33.2784H74.8485L73.91 43.4461C76.5171 43.1332 79.3588 42.9768 82.4352 42.9768C89.0051 42.9768 94.0107 44.2543 97.452 46.8092C100.946 49.3642 102.692 53.4313 102.692 59.0105C102.692 62.6082 101.754 65.7628 99.8767 68.4742C97.9995 71.1856 95.3924 73.2973 92.0554 74.8095C88.7704 76.2694 85.0423 76.9994 80.8709 76.9994C76.0739 76.9994 72.0068 76.0869 68.6697 74.262C65.3326 72.437 63.6641 69.6996 63.6641 66.0496C63.6641 63.9118 64.3419 62.4258 65.6976 61.5915C67.7833 65.9193 72.2153 68.0832 78.9938 68.0832C82.018 68.0832 84.4948 67.301 86.424 65.7368C88.4054 64.1204 89.3961 61.9565 89.3961 59.2451C89.3961 55.9601 88.1969 53.6659 85.7983 52.3624C83.3998 51.0588 80.0366 50.407 75.7089 50.407C72.5803 50.407 69.3215 50.6417 65.9322 51.1109L68.3568 23.6582H98.156L98.8599 33.2784Z" fill="#008151"/>
<path d="M54.1958 33.2784H30.1844L29.2459 43.4461C31.853 43.1332 34.6947 42.9768 37.7711 42.9768C44.341 42.9768 49.3466 44.2543 52.788 46.8092C56.2815 49.3642 58.0283 53.4313 58.0283 59.0105C58.0283 62.6082 57.0897 65.7628 55.2126 68.4742C53.3355 71.1856 50.7284 73.2973 47.3913 74.8095C44.1064 76.2694 40.3782 76.9994 36.2068 76.9994C31.4098 76.9994 27.3427 76.0869 24.0056 74.262C20.6685 72.437 19 69.6996 19 66.0496C19 63.9118 19.6778 62.4258 21.0335 61.5915C23.1192 65.9193 27.5513 68.0832 34.3297 68.0832C37.354 68.0832 39.8307 67.301 41.76 65.7368C43.7414 64.1204 44.7321 61.9565 44.7321 59.2451C44.7321 55.9601 43.5328 53.6659 41.1343 52.3624C38.7357 51.0588 35.3726 50.407 31.0448 50.407C27.9163 50.407 24.6574 50.6417 21.2682 51.1109L23.6928 23.6582H53.4919L54.1958 33.2784Z" fill="#008151"/>
<path d="M136.942 23C137.414 23 137.848 23.1614 138.245 23.4841C138.643 23.7821 138.965 24.1917 139.214 24.7131L123.759 48.1748C123.436 48.6962 123.101 49.0935 122.753 49.3666C122.43 49.6645 122.033 49.8134 121.562 49.8134C121.09 49.8134 120.655 49.6521 120.258 49.3293C119.861 49.0314 119.538 48.6341 119.29 48.1376L134.745 24.6386C135.068 24.1172 135.39 23.72 135.713 23.4469C136.061 23.149 136.47 23 136.942 23ZM118.992 23.6703C121.127 23.6703 122.753 24.3158 123.87 25.6069C124.988 26.8979 125.546 28.6234 125.546 30.7833C125.546 33.0426 124.988 34.8674 123.87 36.2578C122.753 37.6481 121.127 38.3433 118.992 38.3433C116.882 38.3433 115.255 37.6729 114.113 36.3322C112.996 34.9667 112.438 33.204 112.438 31.044C112.438 28.8344 112.996 27.0593 114.113 25.7186C115.231 24.3531 116.857 23.6703 118.992 23.6703ZM118.992 25.5324C118.247 25.5324 117.738 26.0413 117.465 27.0593C117.192 28.0523 117.055 29.3434 117.055 30.9323C117.055 32.5957 117.18 33.9364 117.428 34.9543C117.676 35.9474 118.197 36.444 118.992 36.444C119.762 36.444 120.271 35.9474 120.519 34.9543C120.767 33.9364 120.891 32.5957 120.891 30.9323C120.891 29.3434 120.755 28.0523 120.482 27.0593C120.233 26.0413 119.737 25.5324 118.992 25.5324ZM139.474 34.9543C141.61 34.9543 143.223 35.5998 144.316 36.8909C145.433 38.1819 145.992 39.9198 145.992 42.1046C145.992 44.339 145.433 46.1638 144.316 47.579C143.223 48.9693 141.61 49.6645 139.474 49.6645C137.364 49.6645 135.738 48.9941 134.596 47.6535C133.454 46.288 132.883 44.5128 132.883 42.328C132.883 40.1184 133.441 38.3432 134.559 37.0026C135.701 35.6371 137.339 34.9543 139.474 34.9543ZM139.474 36.8164C138.705 36.8164 138.183 37.3129 137.91 38.306C137.662 39.2991 137.538 40.6025 137.538 42.2163C137.538 43.9046 137.662 45.2576 137.91 46.2756C138.159 47.2687 138.68 47.7652 139.474 47.7652C140.244 47.7652 140.753 47.2562 141.001 46.2383C141.25 45.2204 141.374 43.8797 141.374 42.2163C141.374 40.6274 141.237 39.3363 140.964 38.3433C140.716 37.3253 140.219 36.8164 139.474 36.8164Z" fill="#008151"/>
<path d="M152.452 57.7168V59.9354H146.92V66.0016H151.61V68.2483H146.92V76.2522H142.258V57.7168H152.452Z" fill="#008151"/>
<path d="M140.417 57.7168V59.9354H134.885V66.0016H139.575V68.2483H134.885V76.2522H130.223V57.7168H140.417Z" fill="#008151"/>
<path d="M119.887 57.1562C122.658 57.1562 124.69 57.9988 125.982 59.6838C127.274 61.3688 127.919 63.7185 127.919 66.7329C127.919 69.8221 127.264 72.2841 125.954 74.1189C124.662 75.9538 122.64 76.8712 119.887 76.8712C117.173 76.8712 115.151 75.9912 113.821 74.2313C112.511 72.4714 111.855 70.0936 111.855 67.098C111.855 64.0462 112.501 61.631 113.793 59.8523C115.104 58.0549 117.135 57.1562 119.887 57.1562ZM119.887 74.8491C121.142 74.8491 121.956 74.1096 122.331 72.6305C122.705 71.1327 122.892 69.223 122.892 66.9014C122.892 64.6734 122.696 62.8292 122.303 61.3688C121.928 59.9085 121.123 59.1783 119.887 59.1783C118.652 59.1783 117.837 59.9178 117.444 61.3969C117.051 62.8573 116.854 64.6921 116.854 66.9014C116.854 69.2043 117.042 71.1046 117.416 72.6024C117.809 74.1002 118.633 74.8491 119.887 74.8491Z" fill="#008151"/>
</svg>
