<svg width="172" height="100" viewBox="0 0 172 100" fill="none" xmlns="http://www.w3.org/2000/svg">
<rect width="172" height="100" fill="white"/>
<path d="M84.085 23C91.285 23 96.5917 25.3589 100.005 30.0768C103.418 34.7947 105.125 41.1793 105.125 49.2305C105.125 57.3843 103.365 64.0509 99.845 69.2303C96.3783 74.4097 91.125 76.9994 84.085 76.9994C77.0983 76.9994 71.845 74.5379 68.325 69.6149C64.8583 64.6406 63.125 58.1791 63.125 50.2305C63.125 42.0254 64.8317 35.4358 68.245 30.4615C71.6583 25.4872 76.9383 23 84.085 23ZM84.085 71.461C86.965 71.461 88.9117 69.538 89.925 65.6919C90.9383 61.7945 91.445 56.4612 91.445 49.692C91.445 43.2306 90.9383 38.1024 89.925 34.3076C88.9117 30.4615 86.965 28.5384 84.085 28.5384C81.2583 28.5384 79.3383 30.4615 78.325 34.3076C77.3117 38.1024 76.805 43.2306 76.805 49.692C76.805 56.4612 77.3117 61.7945 78.325 65.6919C79.3383 69.538 81.2583 71.461 84.085 71.461Z" fill="#008151"/>
<path d="M54 34.0005H29.44L28.48 44.0004C31.1467 43.6927 34.0533 43.5389 37.2 43.5389C43.92 43.5389 49.04 44.7953 52.56 47.3081C56.1333 49.8208 57.92 53.8208 57.92 59.3079C57.92 62.8464 56.96 65.9489 55.04 68.6155C53.12 71.2822 50.4533 73.3591 47.04 74.8462C43.68 76.2821 39.8667 77.0001 35.6 77.0001C30.6933 77.0001 26.5333 76.1026 23.12 74.3078C19.7067 72.5129 18 69.8206 18 66.2309C18 64.1284 18.6933 62.6669 20.08 61.8464C22.2133 66.1027 26.7467 68.2309 33.68 68.2309C36.7733 68.2309 39.3067 67.4617 41.28 65.9232C43.3067 64.3335 44.32 62.2053 44.32 59.5387C44.32 56.308 43.0933 54.0516 40.64 52.7695C38.1867 51.4875 34.7467 50.8465 30.32 50.8465C27.12 50.8465 23.7867 51.0772 20.32 51.5388L22.8 24.5391H53.28L54 34.0005Z" fill="#008151"/>
<path d="M138.635 23.8906C139.117 23.8906 139.562 24.0493 139.968 24.3668C140.374 24.6598 140.704 25.0627 140.958 25.5754L125.15 48.65C124.82 49.1628 124.477 49.5535 124.122 49.8221C123.792 50.1151 123.385 50.2616 122.903 50.2616C122.42 50.2616 121.976 50.1029 121.57 49.7855C121.163 49.4924 120.833 49.1018 120.579 48.6134L136.387 25.5022C136.717 24.9894 137.048 24.5987 137.378 24.3301C137.733 24.0371 138.152 23.8906 138.635 23.8906ZM120.274 24.5499C122.458 24.5499 124.122 25.1848 125.264 26.4545C126.407 27.7242 126.979 29.4212 126.979 31.5455C126.979 33.7675 126.407 35.5622 125.264 36.9296C124.122 38.297 122.458 38.9807 120.274 38.9807C118.116 38.9807 116.453 38.3214 115.284 37.0029C114.142 35.6599 113.57 33.9262 113.57 31.8019C113.57 29.6288 114.142 27.8829 115.284 26.5643C116.427 25.2214 118.091 24.5499 120.274 24.5499ZM120.274 26.3812C119.513 26.3812 118.992 26.8818 118.713 27.8829C118.433 28.8596 118.294 30.1293 118.294 31.692C118.294 33.328 118.421 34.6466 118.675 35.6477C118.929 36.6244 119.462 37.1127 120.274 37.1127C121.062 37.1127 121.582 36.6244 121.836 35.6477C122.09 34.6466 122.217 33.328 122.217 31.692C122.217 30.1293 122.077 28.8596 121.798 27.8829C121.544 26.8818 121.036 26.3812 120.274 26.3812ZM141.225 35.6477C143.409 35.6477 145.06 36.2825 146.177 37.5523C147.32 38.822 147.891 40.5312 147.891 42.6799C147.891 44.8775 147.32 46.6722 146.177 48.064C145.06 49.4314 143.409 50.1151 141.225 50.1151C139.066 50.1151 137.403 49.4558 136.235 48.1373C135.067 46.7943 134.483 45.0484 134.483 42.8997C134.483 40.7265 135.054 38.9807 136.197 37.6621C137.365 36.3192 139.041 35.6477 141.225 35.6477ZM141.225 37.479C140.438 37.479 139.904 37.9674 139.625 38.9441C139.371 39.9208 139.244 41.2027 139.244 42.7898C139.244 44.4502 139.371 45.781 139.625 46.7821C139.879 47.7588 140.412 48.2471 141.225 48.2471C142.012 48.2471 142.533 47.7466 142.787 46.7455C143.041 45.7443 143.168 44.4258 143.168 42.7898C143.168 41.2271 143.028 39.9574 142.749 38.9807C142.495 37.9796 141.987 37.479 141.225 37.479Z" fill="#008151"/>
<path d="M154.502 58.0361V60.2182H148.843V66.1842H153.64V68.3938H148.843V76.2657H144.074V58.0361H154.502Z" fill="#008151"/>
<path d="M142.189 58.0361V60.2182H136.53V66.1842H141.327V68.3938H136.53V76.2657H131.762V58.0361H142.189Z" fill="#008151"/>
<path d="M121.192 57.4834C124.026 57.4834 126.104 58.312 127.426 59.9692C128.747 61.6265 129.408 63.9374 129.408 66.902C129.408 69.9402 128.737 72.3616 127.397 74.1662C126.075 75.9707 124.007 76.873 121.192 76.873C118.415 76.873 116.347 76.0075 114.987 74.2767C113.647 72.5458 112.977 70.2072 112.977 67.2611C112.977 64.2596 113.637 61.8843 114.959 60.135C116.299 58.3673 118.377 57.4834 121.192 57.4834ZM121.192 74.8843C122.475 74.8843 123.308 74.157 123.691 72.7023C124.074 71.2292 124.266 69.351 124.266 67.0677C124.266 64.8765 124.065 63.0627 123.662 61.6265C123.279 60.1902 122.456 59.4721 121.192 59.4721C119.928 59.4721 119.095 60.1994 118.693 61.6541C118.291 63.0904 118.09 64.8949 118.09 67.0677C118.09 69.3326 118.281 71.2016 118.664 72.6747C119.066 74.1478 119.909 74.8843 121.192 74.8843Z" fill="#008151"/>
</svg>
